
<svg width="300" height="50" xmlns="http://www.w3.org/2000/svg" xmlns:xlink="http://www.w3.org/1999/xlink" viewBox="0 0 293.59961 38.20166"><defs><style>.cls-1{fill:url(#linear-gradient);}</style><linearGradient id="linear-gradient" y1="19.10083" x2="293.59961" y2="19.10083" gradientUnits="userSpaceOnUse"><stop offset="0" stop-color="#5b6eb4"/><stop offset="1" stop-color="#3ac4f3"/></linearGradient></defs><g id="Layer_2" data-name="Layer 2"><g id="Layer_1-2" data-name="Layer 1"><path class="cls-1" d="M0,29.64209V2.97217H6.77637V29.64209Z"/><path class="cls-1" d="M34.04,10.898a5.985,5.985,0,0,1,4.57715,1.7041q1.60473,1.70434,1.605,6.18213V29.64209H33.4458l-.04-9.98633q0-2.85351-1.981-2.853-2.41772,0-2.41748,3.16993v9.66943H22.19141V19.65576q0-2.85351-2.021-2.853-2.37818,0-2.41748,3.16993v9.66943H10.937V11.53223h5.94385v2.1792A6.29213,6.29213,0,0,1,22.627,10.898q4.08107,0,5.3501,3.05127Q29.67993,10.89869,34.04,10.898Z"/><path class="cls-1" d="M57.53906,11.53223h6.30078V29.64209H57.06348V27.81934a7.58225,7.58225,0,0,1-5.86524,2.417,7.77972,7.77972,0,0,1-6.063-2.5957,10.11555,10.11555,0,0,1-2.33789-7.0337,9.9704,9.9704,0,0,1,2.417-7.07373,8.45434,8.45434,0,0,1,6.499-2.5957,6.72548,6.72548,0,0,1,5.82568,2.61572ZM56.31055,20.686v-.19825a3.16743,3.16743,0,0,0-.93116-2.39746,3.2228,3.2228,0,0,0-2.31835-.8916,3.32358,3.32358,0,0,0-2.39747.8916,3.21432,3.21432,0,0,0-.93115,2.4375,3.38214,3.38214,0,0,0,5.627,2.55567A3.05138,3.05138,0,0,0,56.31055,20.686Z"/><path class="cls-1" d="M80.87988,11.53223H87.2207v14.979q0,6.18237-2.61523,8.93652-2.61621,2.75391-7.88623,2.75391a9.93819,9.93819,0,0,1-5.7461-1.62451,7.43028,7.43028,0,0,1-3.09082-4.51758l5.50831-2.021A3.15035,3.15035,0,0,0,76.79834,32.773a3.6867,3.6867,0,0,0,2.87354-1.03076,4.7542,4.7542,0,0,0,.93066-3.24951V26.66992q-1.86329,2.57667-5.9834,2.57569a7.68562,7.68562,0,0,1-5.667-2.25879q-2.25879-2.25879-2.25879-6.57813,0-4.5564,2.35791-7.01416a8.0559,8.0559,0,0,1,6.083-2.457q4.002,0,5.7456,2.85352Zm-.792,8.75781V20.0918a3.27923,3.27923,0,0,0-5.54834-2.37793,3.37445,3.37445,0,0,0-.91113,2.49658,3.23745,3.23745,0,0,0,.8916,2.39746,3.18515,3.18515,0,0,0,2.35791.8916,3.34591,3.34591,0,0,0,2.27832-.812A3.01307,3.01307,0,0,0,80.08789,20.29Z"/><path class="cls-1" d="M99.90137,10.898q4.478,0,6.77636,2.55615t2.25879,8.22266l-11.96777.0791q.59472,2.69531,3.88379,2.69482a9.67882,9.67882,0,0,0,5.62695-1.66406l1.82324,5.5083a10.2,10.2,0,0,1-3.3291,1.34717,17.986,17.986,0,0,1-4.51758.59424,11.40933,11.40933,0,0,1-7.72753-2.437q-2.814-2.43678-2.81348-7.11328a9.24076,9.24076,0,0,1,2.833-7.23194A10.27539,10.27539,0,0,1,99.90137,10.898Zm0,5.82519a2.90741,2.90741,0,0,0-2.02149.75293,3.35625,3.35625,0,0,0-.99023,2.21924l5.74609-.03955Q102.39844,16.72388,99.90137,16.72314Z"/><path class="cls-1" d="M117.81348,30.23633a14.63924,14.63924,0,0,1-6.73731-1.38672l1.18946-5.15186a10.301,10.301,0,0,0,2.43652,1.1294,8.75759,8.75759,0,0,0,2.79394.53515q1.82228,0,1.82325-.99072a.92444.92444,0,0,0-.45606-.8125,6.25372,6.25372,0,0,0-1.60449-.61426,8.5906,8.5906,0,0,1-4.39941-2.27832,5.75513,5.75513,0,0,1-1.30762-3.94336,5.27062,5.27062,0,0,1,1.84277-4.29931,8.23532,8.23532,0,0,1,5.37012-1.52588,16.99049,16.99049,0,0,1,6.73633,1.38721l-1.78321,4.79492a9.12514,9.12514,0,0,0-4.43847-1.30762q-1.42676,0-1.42676.99024a.86166.86166,0,0,0,.416.75341,6.02875,6.02875,0,0,0,1.52637.59424,10.17782,10.17782,0,0,1,4.3584,2.21924,5.16588,5.16588,0,0,1,1.42676,3.8833,5.18806,5.18806,0,0,1-2.12012,4.498A9.472,9.472,0,0,1,117.81348,30.23633Z"/><path class="cls-1" d="M147.88965,13.98877H160.333V29.64209h-4.835l-.793-2.49658q-2.61476,3.09081-8.63867,3.09082a11.031,11.031,0,0,1-8.55957-3.78418q-3.40869-3.78442-3.40821-10.28369,0-6.33985,3.98242-10.06543a14.29244,14.29244,0,0,1,10.165-3.7251q6.77637,0,10.69922,4.12109l-4.24023,5.3501A7.87449,7.87449,0,0,0,148.167,9.0752a6.72188,6.72188,0,0,0-5.0332,1.90185,7.39622,7.39622,0,0,0-1.90234,5.31055,7.36026,7.36026,0,0,0,1.88281,5.34961,6.41212,6.41212,0,0,0,4.81445,1.94189,6.62271,6.62271,0,0,0,3.90332-1.05029,3.7975,3.7975,0,0,0,1.68457-2.75391v-.31738h-5.627Z"/><path class="cls-1" d="M178.0459,11.53223h6.30078V29.64209h-6.77637V27.81934a7.58085,7.58085,0,0,1-5.86426,2.417,7.78073,7.78073,0,0,1-6.06347-2.5957,10.11782,10.11782,0,0,1-2.33789-7.0337,9.97039,9.97039,0,0,1,2.417-7.07373,8.45507,8.45507,0,0,1,6.499-2.5957,6.72457,6.72457,0,0,1,5.8252,2.61572ZM176.81738,20.686v-.19825a3.16711,3.16711,0,0,0-.93066-2.39746,3.222,3.222,0,0,0-2.31836-.8916,3.32355,3.32355,0,0,0-2.39746.8916,3.21457,3.21457,0,0,0-.93164,2.4375,3.38284,3.38284,0,0,0,5.62793,2.55567A3.0524,3.0524,0,0,0,176.81738,20.686Z"/><path class="cls-1" d="M187.99219,29.64209V0h6.8164V29.64209Z"/><path class="cls-1" d="M198.335,29.64209V0h6.81641V29.64209Z"/><path class="cls-1" d="M217.87207,10.898q4.478,0,6.77637,2.55615t2.25879,8.22266l-11.96778.0791q.59473,2.69531,3.88379,2.69482a9.67886,9.67886,0,0,0,5.627-1.66406l1.82324,5.5083a10.20013,10.20013,0,0,1-3.3291,1.34717,17.98608,17.98608,0,0,1-4.51758.59424,11.40936,11.40936,0,0,1-7.72754-2.437q-2.814-2.43678-2.81348-7.11328a9.24076,9.24076,0,0,1,2.833-7.23194A10.27541,10.27541,0,0,1,217.87207,10.898Zm0,5.82519a2.90736,2.90736,0,0,0-2.02148.75293,3.35621,3.35621,0,0,0-.99024,2.21924l5.7461-.03955Q220.36914,16.72388,217.87207,16.72314Z"/><path class="cls-1" d="M235.98145,14.22656a5.93893,5.93893,0,0,1,5.82519-3.28906v6.53857a4.193,4.193,0,0,0-3.68555.773,4.93512,4.93512,0,0,0-1.26855,3.78467v7.6084h-6.81543V11.53223h5.94434Z"/><path class="cls-1" d="M257.02344,11.53223H264.751l-11.7295,25.7583h-7.17285l4.24024-8.75782-7.33106-17.00048h8.16309l2.81348,8.916Z"/><path class="cls-1" d="M285.31738,23.30176h8.28223v6.34033H272.63672l-.04-.39648,7.60937-10.65967a30.04251,30.04251,0,0,0,2.89258-4.4585,6.86141,6.86141,0,0,0,.793-2.9126q0-2.2976-1.98144-2.29834-2.14014,0-2.89356,3.24952l-5.94433-2.17969a9.97406,9.97406,0,0,1,.91211-2.57569A11.21206,11.21206,0,0,1,275.708,4.99316a7.70316,7.70316,0,0,1,2.873-1.90185,10.69015,10.69015,0,0,1,4.002-.71338,9.46426,9.46426,0,0,1,6.5791,2.17969,7.70165,7.70165,0,0,1,2.417,6.02343,11.80916,11.80916,0,0,1-1.26855,5.42872,42.79629,42.79629,0,0,1-4.2002,6.30127Z"/></g></g></svg>